<?xml version="1.0" standalone="no"?>
<!DOCTYPE svg PUBLIC "-//W3C//DTD SVG 20010904//EN"
 "http://www.w3.org/TR/2001/REC-SVG-20010904/DTD/svg10.dtd">
<svg version="1.0" xmlns="http://www.w3.org/2000/svg"
 width="1600.000000px" height="1400.000000px" viewBox="350 500 1340.000000 1083.000000"
 preserveAspectRatio="xMidYMid meet">
<metadata>
Created by potrace 1.16, written by Peter Selinger 2001-2019
</metadata>
<g transform="translate(0.000000,1483.000000) scale(0.100000,-0.100000)"
fill="#000000" stroke="none">
<path d="M5522 6640 c-50 -12 -104 -60 -132 -118 -22 -46 -30 -54 -75 -68 -27
-9 -81 -32 -119 -51 l-68 -34 -30 28 c-26 25 -36 28 -98 28 -65 0 -71 -2 -105
-35 -60 -58 -71 -145 -25 -203 25 -32 25 -42 -1 -78 -27 -39 -84 -164 -98
-216 -11 -41 -14 -43 -49 -43 -48 0 -134 -49 -160 -92 -86 -138 -5 -317 151
-337 l49 -6 27 -70 c15 -39 44 -102 65 -141 l39 -71 -23 -31 c-47 -63 -30
-173 32 -217 62 -43 147 -39 198 10 l26 25 65 -29 c35 -16 103 -41 151 -56 72
-22 91 -33 109 -60 70 -102 217 -92 274 17 7 14 36 28 93 44 45 13 112 38 149
54 66 30 66 30 87 11 12 -11 39 -27 60 -36 133 -56 259 102 182 229 l-23 39
46 91 c26 50 57 115 69 144 20 49 23 52 57 52 101 0 194 102 195 213 0 112
-75 199 -187 216 l-44 6 -33 87 c-18 47 -49 114 -69 148 l-37 62 22 30 c30 42
35 122 11 167 -29 56 -65 76 -137 76 -53 0 -68 -4 -99 -28 l-36 -28 -68 34
c-37 19 -92 42 -120 51 -34 12 -53 23 -53 33 0 26 -46 96 -78 120 -49 36 -123
49 -190 33z m128 -125 c31 -28 44 -81 30 -116 -25 -58 -116 -79 -165 -36 -52
44 -40 142 19 168 30 13 94 4 116 -16z m-237 -204 c64 -97 230 -112 317 -30
14 13 32 34 40 46 l15 22 65 -26 c85 -35 155 -76 157 -94 2 -14 -109 -115
-165 -149 -56 -35 -52 -110 7 -110 21 0 55 22 126 80 54 44 105 80 115 80 9 0
28 -8 41 -19 28 -22 109 -173 134 -249 l17 -54 -25 -26 c-75 -78 -76 -202 -3
-289 l27 -32 -25 -61 c-14 -34 -46 -99 -71 -145 -39 -71 -51 -86 -89 -105 -31
-14 -53 -35 -70 -64 -28 -48 -76 -76 -218 -126 l-76 -28 -30 37 -30 38 151 67
c190 85 246 118 277 164 l25 35 3 340 c2 286 0 343 -12 362 -27 41 -59 40
-169 -8 -56 -25 -127 -55 -157 -67 -92 -37 -171 -83 -187 -107 l-16 -24 -31
32 c-26 26 -200 119 -224 119 -4 0 -52 20 -108 45 -113 50 -140 52 -174 8 -19
-24 -20 -42 -20 -330 0 -197 4 -320 12 -350 19 -76 61 -108 263 -200 99 -45
180 -86 180 -90 0 -5 -11 -23 -25 -41 l-25 -32 -80 28 c-108 39 -205 89 -205
107 0 24 -59 83 -94 95 -25 8 -41 25 -73 83 -22 39 -53 104 -68 143 l-27 71
32 45 c60 86 61 174 3 261 l-35 52 17 55 c18 57 70 164 104 214 26 39 75 60
92 40 33 -40 189 -154 211 -154 58 0 66 63 13 106 -112 93 -175 150 -175 159
0 13 198 110 231 114 4 1 18 -16 32 -38z m-71 -525 c119 -57 159 -82 181 -110
40 -52 73 -49 134 10 36 35 82 63 183 109 190 87 180 86 180 32 l0 -44 -107
-48 c-186 -83 -267 -125 -299 -156 l-30 -29 -35 31 c-19 17 -117 71 -219 118
l-185 87 -3 43 c-3 42 -2 43 22 37 14 -3 94 -39 178 -80z m-561 -51 c56 -29
85 -107 59 -156 -6 -10 -24 -26 -40 -34 -64 -33 -129 -9 -155 58 -15 39 -15
48 -2 79 9 21 27 41 48 51 42 21 53 21 90 2z m1709 -23 c43 -42 51 -77 28
-127 -30 -66 -141 -73 -182 -11 -27 42 -28 80 -4 116 47 70 100 77 158 22z
m-1114 -157 c119 -57 157 -80 179 -109 l28 -37 36 40 c20 22 63 54 96 70 99
49 296 141 301 141 3 0 4 -78 2 -174 -3 -194 -7 -204 -76 -227 -19 -6 -85 -35
-146 -64 -61 -29 -134 -62 -162 -74 l-51 -22 -54 24 c-299 134 -359 165 -368
190 -7 19 -16 290 -12 339 1 9 45 -10 227 -97z"/>
<path d="M7289 6267 c-91 -31 -139 -66 -182 -130 -111 -167 -52 -385 123 -455
30 -12 106 -35 168 -51 157 -41 205 -75 187 -131 -14 -43 -112 -68 -191 -49
-27 6 -85 29 -129 50 -103 50 -144 52 -190 6 -56 -56 -59 -130 -8 -182 36 -35
194 -110 261 -124 164 -34 346 6 445 98 86 79 115 253 60 368 -42 90 -124 141
-303 188 -152 41 -200 67 -200 112 0 31 42 69 85 77 48 9 109 -9 188 -56 58
-35 73 -40 108 -35 47 6 71 25 94 74 23 48 12 95 -32 144 -96 106 -323 151
-484 96z"/>
<path d="M11721 6274 c-111 -30 -188 -90 -237 -184 -26 -52 -32 -187 -9 -247
22 -56 76 -118 125 -143 46 -24 175 -65 267 -85 83 -19 123 -49 123 -93 0 -90
-153 -101 -310 -22 -86 43 -132 50 -179 25 -66 -33 -79 -140 -24 -197 34 -36
167 -101 249 -122 225 -58 470 41 528 211 24 71 21 177 -8 238 -47 103 -122
149 -336 211 -75 21 -134 44 -147 56 -45 42 -21 98 50 117 56 16 109 3 192
-46 74 -43 112 -50 154 -28 41 21 74 89 65 133 -14 71 -112 146 -229 177 -73
19 -202 18 -274 -1z"/>
<path d="M8313 6265 c-77 -17 -175 -60 -202 -89 -68 -72 -58 -184 19 -216 31
-13 43 -11 139 27 125 49 275 39 316 -20 16 -23 21 -147 6 -147 -5 0 -40 10
-77 22 -95 30 -217 30 -297 -2 -88 -33 -156 -93 -197 -174 -31 -62 -35 -77
-34 -147 1 -105 40 -188 117 -247 92 -70 111 -77 222 -77 113 0 161 17 241 88
l44 39 11 -29 c33 -88 141 -129 217 -83 61 37 63 54 60 428 -3 327 -4 339 -27
395 -42 106 -155 201 -276 233 -63 17 -201 17 -282 -1z m218 -617 c40 -22 69
-64 69 -100 0 -27 -67 -97 -117 -122 -87 -44 -203 19 -203 111 0 60 58 120
128 133 46 9 77 3 123 -22z"/>
<path d="M9182 6260 c-63 -38 -63 -42 -60 -545 3 -437 4 -454 23 -475 66 -73
173 -63 225 22 19 31 20 51 20 323 0 282 1 292 23 335 33 66 83 92 169 88 77
-4 113 -24 140 -79 16 -30 18 -68 18 -329 0 -268 2 -299 19 -337 34 -75 128
-95 200 -44 50 36 53 62 49 451 -3 340 -4 357 -25 402 -54 118 -175 198 -301
201 -90 2 -147 -16 -218 -69 l-59 -44 -7 28 c-9 34 -42 70 -75 83 -41 15 -106
10 -141 -11z"/>
<path d="M10581 6264 c-90 -24 -166 -71 -239 -148 -37 -39 -79 -95 -95 -123
-35 -66 -67 -190 -67 -262 1 -334 330 -597 660 -527 216 45 383 203 431 406
19 81 15 213 -10 291 -54 170 -210 318 -386 364 -74 19 -222 19 -294 -1z m255
-273 c211 -96 224 -394 23 -495 -106 -53 -252 -27 -326 58 -57 64 -68 93 -68
181 0 64 5 89 23 123 31 58 94 118 145 136 60 21 153 20 203 -3z"/>
</g>
</svg>
